<?xml version="1.0" encoding="UTF-8"?>
<svg id="Layer_1" xmlns="http://www.w3.org/2000/svg" viewBox="0 0 850 200"><defs><style>.cls-1{fill:#fff;}</style></defs><path class="cls-1" d="m81.81,112.8c-.08,0-.15.02-.22.02v-.02c-9.7-.64-18.12-10.87-18.13-18.38.16-5.81.51-12.78.82-13.92,5.4-30.19,28.05-54.39,57.41-62.01-10.5-5.42-22.4-8.5-35.01-8.5C44.39,10,10,44.39,10,86.67v68.36c0,14.75,11.96,26.71,26.71,26.71s26.71-11.96,26.71-26.71v-14.28c0-10.35,7.98-18.8,18.16-19.47v-.02c.08,0,.15.02.22.02,2.34,0,4.24-1.9,4.24-4.24s-1.9-4.24-4.24-4.24Z"/><path class="cls-1" d="m146.69,47.05c4.07,0,8.06.31,11.96.89-4.87-8.27-11.24-15.56-18.74-21.47-27.4,2.55-50.69,19.21-62.58,42.63,4.08-3.53,9.38-5.68,15.18-5.68,1.67,0,3.3.19,4.87.52,13.62-10.58,30.71-16.89,49.29-16.89Z"/><path class="cls-1" d="m165.34,62.65c-6.86-1.9-14.07-2.94-21.53-2.94-13.23,0-25.71,3.2-36.72,8.86,5.29,4.27,8.69,10.79,8.69,18.1v7.75c0,7.5-8.43,17.74-18.13,18.38v.02c-.08,0-.15-.02-.22-.02-2.34,0-4.24,1.9-4.24,4.24s1.9,4.24,4.24,4.24c.08,0,.15-.02.22-.02v.02c9.83.65,17.61,8.54,18.13,18.4v15.35c0,14.75,11.96,26.71,26.71,26.71s26.71-11.96,26.71-26.71v-68.36c0-8.39-1.36-16.46-3.86-24.02Z"/><g><path class="cls-1" d="m278.33,58.37l46.29,99.26h-10.71l-15.61-32.66h-42.76l-15.46,32.66h-11.07l46.9-99.26h2.43Zm-1.25,21.09l-17.01,35.93h33.93l-16.93-35.93Z"/><path class="cls-1" d="m333.72,58.37h19.77c11.34,0,18.98.5,22.94,1.48,5.67,1.39,10.3,4.26,13.9,8.6,3.6,4.34,5.4,9.8,5.4,16.36s-1.75,12.07-5.26,16.36c-3.51,4.3-8.34,7.19-14.51,8.67-4.5,1.08-12.91,1.62-25.24,1.62h-7.08v46.15h-9.92V58.37Zm9.92,9.72v33.67l16.8.2c6.79,0,11.76-.62,14.91-1.85,3.15-1.23,5.62-3.23,7.42-5.99,1.8-2.76,2.7-5.85,2.7-9.26s-.9-6.36-2.7-9.12c-1.8-2.76-4.17-4.73-7.12-5.89-2.95-1.17-7.77-1.75-14.47-1.75h-17.54Z"/><path class="cls-1" d="m407.24,58.37h9.92v99.26h-9.92V58.37Z"/><path class="cls-1" d="m526.81,76.79l-7.83,6.01c-4.32-5.62-9.5-9.89-15.55-12.79-6.05-2.9-12.7-4.35-19.94-4.35-7.92,0-15.25,1.9-22,5.7-6.75,3.8-11.98,8.91-15.69,15.32-3.71,6.41-5.57,13.62-5.57,21.63,0,12.1,4.15,22.2,12.45,30.3,8.3,8.1,18.77,12.15,31.41,12.15,13.9,0,25.53-5.44,34.89-16.33l7.83,5.94c-4.95,6.3-11.12,11.17-18.52,14.61-7.4,3.44-15.67,5.16-24.8,5.16-17.36,0-31.06-5.78-41.09-17.34-8.41-9.76-12.62-21.55-12.62-35.36,0-14.53,5.09-26.75,15.28-36.67s22.95-14.88,38.29-14.88c9.27,0,17.63,1.83,25.1,5.5,7.47,3.67,13.58,8.81,18.35,15.42Z"/><path class="cls-1" d="m539.45,58.37h9.92v59.92c0,7.11.13,11.54.4,13.29.49,3.91,1.64,7.19,3.44,9.82,1.8,2.63,4.56,4.84,8.3,6.61,3.73,1.78,7.49,2.67,11.27,2.67,3.28,0,6.43-.7,9.45-2.09,3.01-1.39,5.53-3.33,7.56-5.8,2.02-2.47,3.51-5.47,4.45-8.97.67-2.52,1.01-7.69,1.01-15.52v-59.92h9.92v59.92c0,8.86-.87,16.03-2.6,21.49-1.73,5.47-5.2,10.22-10.39,14.27-5.2,4.05-11.48,6.07-18.86,6.07-8.01,0-14.87-1.91-20.58-5.74-5.71-3.82-9.54-8.88-11.47-15.18-1.21-3.87-1.82-10.84-1.82-20.92v-59.92Z"/><path class="cls-1" d="m623.23,58.37h19.77c11.02,0,18.49.45,22.4,1.35,5.89,1.35,10.68,4.24,14.37,8.68s5.53,9.9,5.53,16.38c0,5.41-1.27,10.16-3.81,14.26-2.54,4.1-6.17,7.2-10.9,9.29-4.72,2.09-11.25,3.17-19.57,3.21l35.69,46.09h-12.27l-35.7-46.09h-5.61v46.09h-9.92V58.37Zm9.92,9.72v33.74l17.1.14c6.62,0,11.52-.63,14.7-1.89,3.18-1.26,5.66-3.27,7.43-6.04s2.67-5.86,2.67-9.28-.9-6.35-2.7-9.08c-1.8-2.72-4.17-4.67-7.1-5.84-2.93-1.17-7.8-1.75-14.6-1.75h-17.5Z"/><path class="cls-1" d="m698.24,58.37h9.92v99.26h-9.92V58.37Z"/><path class="cls-1" d="m772.63,55.87c15.03,0,27.62,5.02,37.74,15.05,10.13,10.03,15.19,22.38,15.19,37.04s-5.05,26.86-15.16,36.98c-10.11,10.12-22.43,15.18-36.97,15.18s-27.14-5.04-37.27-15.11c-10.13-10.08-15.19-22.27-15.19-36.57,0-9.54,2.31-18.38,6.92-26.52,4.61-8.14,10.9-14.52,18.87-19.13,7.97-4.61,16.59-6.92,25.86-6.92Zm.44,9.65c-7.34,0-14.31,1.91-20.88,5.74-6.58,3.83-11.72,8.98-15.41,15.46-3.69,6.48-5.54,13.71-5.54,21.68,0,11.8,4.09,21.76,12.27,29.88,8.18,8.13,18.03,12.19,29.57,12.19,7.7,0,14.83-1.87,21.39-5.6,6.56-3.74,11.67-8.85,15.34-15.33s5.51-13.69,5.51-21.61-1.84-15-5.51-21.37-8.84-11.47-15.51-15.29c-6.67-3.83-13.74-5.74-21.22-5.74Z"/></g></svg>